<svg id="Calque_1" xmlns="http://www.w3.org/2000/svg" viewBox="0 0 180 180" ><path d="M20,0C8.98,0,0,8.98,0,20V160c0,11.02,8.98,20,20,20H160c11.02,0,20-8.98,20-20V20c0-11.02-8.98-20-20-20H20Zm14.06,46.88h25.94c23.01,0,26.88,14.14,26.88,23.12,0,13.01-8.95,17.11-10.94,18.12,1.99,1.02,12.19,3.75,12.19,18.75,1.02,18.01-10.23,25-26.25,25h-27.81V46.88Zm70,0h36.88v10h-36.88v-10Zm-53.12,14.06v20.94h9.06c6.02,0,10-1.99,10-10,0-6.99-3.01-10.94-10-10.94h-9.06Zm75,7.19c13.98,0,24.06,7.93,24.06,30.94v6.88h-34.06c0,3.01,.2,14.06,12.19,14.06,8.01,0,11.76-3.95,13.75-5.94l7.19,10c-1.02,1.02-7.93,9.06-20.94,9.06-15,0-27.19-8.05-27.19-29.06v-5c0-23.01,11.99-30.94,25-30.94Zm-1.88,12.81c-3.01,0-9.06,1.13-9.06,13.12h16.88s2.19-13.12-7.81-13.12Zm-73.12,14.06v23.12h10.94c6.02,0,9.06-4.26,9.06-11.25,1.02-8.01-1.8-11.88-7.81-11.88h-12.19Z" fill="rgba(18, 31, 102, 0.5)"/></svg>