<svg id="Calque_1" xmlns="http://www.w3.org/2000/svg" viewBox="0 0 180 180"><path d="M160,0H20C8.95,0,0,8.95,0,20V160c0,11.05,8.95,20,20,20H160c11.05,0,20-8.95,20-20V20c0-11.05-8.95-20-20-20ZM60,140h-25.23V70h25.23v70Zm-13.06-82.83c-7.71,0-12.86-5.14-12.86-12s5.14-12,13.71-12c7.71,0,12.86,5.14,12.86,12s-5.14,12-13.71,12Zm103.06,82.83h-24.42v-38.26c0-10.58-6.51-13.02-8.95-13.02s-10.58,1.63-10.58,13.02v38.26h-25.23V70h25.23v9.77c3.25-5.7,9.76-9.77,21.97-9.77s21.98,9.77,21.98,31.74v38.26Z" fill="#f5f5f5"/></svg>